#!OML:ASF I:\Actors\actors\Patient Classification 2\Patient 1\Session 1\actor1.ASF
:FULLY-SPECIFIED
:DEGREES
613
root -0.526111 18.7034 5.94809 3.41146 -2.55099 -1.57946
lowerback 1.45345 2.84261 -2.12388
upperback -2.25124 3.75962 0.921418
thorax -3.32903 1.94006 1.96678
lowerneck -15.6853 -2.39293 -1.69352
upperneck 35.9301 -3.46548 1.19974
head 15.2443 -1.51351 0.206866
rclavicle -1.59996e-014 5.2181e-015
rhumerus -43.3656 33.5655 -104.104
rradius 109.673
rwrist -52.0669
rhand -15.8947 -68.1025
rfingers 7.12502
rthumb 10.3017 -622.17
lclavicle -1.59996e-014 5.2181e-015
lhumerus -43.0807 -29.5618 100.665
lradius 109.503
lwrist 31.2826
lhand -14.609 -26.7805
lfingers 7.12502
lthumb 11.5419 2.88172
rfemur 0 0 0
rtibia 0
rfoot 0 0
rtoes 0
lfemur -5.05422 -8.09238 -13.453
ltibia 21.7246
lfoot -24.8962 16.0368
ltoes -53.6811
614
root -0.526161 18.7039 5.94991 3.43603 -2.55864 -1.53261
lowerback 1.40819 2.84392 -2.12458
upperback -2.26096 3.76071 0.872812
thorax -3.31027 1.93987 1.91932
lowerneck -15.6834 -2.43175 -1.66104
upperneck 35.9415 -3.51737 1.15133
head 15.2484 -1.53801 0.171642
rclavicle -3.65737e-014 -5.91384e-015
rhumerus -43.2693 32.5021 -103.781
rradius 109.617
rwrist -53.9073
rhand -16.3385 -68.3101
rfingers 7.12502
rthumb 9.87361 -621.941
lclavicle -3.65737e-014 -5.91384e-015
lhumerus -43.1173 -29.597 100.669
lradius 109.495
lwrist 31.292
lhand -14.5516 -26.8853
lfingers 7.12502
lthumb 11.5972 2.77376
rfemur 0 0 0
rtibia 0
rfoot 0 0
rtoes 0
lfemur -5.06633 -8.10812 -13.5097
ltibia 21.7161
lfoot -24.8984 16.0574
ltoes -53.6657
615
root -0.527143 18.7037 5.95152 3.41934 -2.54588 -1.5097
lowerback 1.42294 2.84307 -2.11708
upperback -2.26683 3.75842 0.836812
thorax -3.32154 1.93815 1.87732
lowerneck -15.7047 -2.48032 -1.70821
upperneck 35.9684 -3.58889 1.18528
head 15.27 -1.56976 0.181256
rclavicle -7.598e-014 -3.47873e-015
rhumerus -43.1984 31.0003 -103.428
rradius 109.635
rwrist -55.4958
rhand -16.1424 -68.3439
rfingers 7.12502
rthumb 10.0628 -621.917
lclavicle -7.598e-014 -3.47873e-015
lhumerus -43.1725 -29.5993 100.716
lradius 109.495
lwrist 31.283
lhand -14.5924 -27.043
lfingers 7.12502
lthumb 11.5579 2.61835
rfemur 0 0 0
rtibia 0
rfoot 0 0
rtoes 0
lfemur -5.03862 -8.0949 -13.5356
ltibia 21.712
lfoot -24.8815 16.0568
ltoes -53.703
616
root -0.529567 18.7029 5.95226 3.37601 -2.52138 -1.51969
lowerback 1.46939 2.84213 -2.1177
upperback -2.26254 3.75612 0.831876
thorax -3.34289 1.93705 1.87037
lowerneck -15.734 -2.51785 -1.79141
upperneck 36 -3.6453 1.25558
head 15.2976 -1.59467 0.215067
rclavicle -2.84316e-014 -9.39258e-015
rhumerus -43.2058 28.851 -103.071
rradius 109.859
rwrist -57.4579
rhand -15.4623 -68.9776
rfingers 7.12502
rthumb 10.7188 -621.316
lclavicle -2.84316e-014 -9.39258e-015
lhumerus -43.2416 -29.5672 100.767
lradius 109.534
lwrist 31.3056
lhand -14.6362 -27.1853
lfingers 7.12502
lthumb 11.5156 2.47838
rfemur 0 0 0
rtibia 0
rfoot 0 0
rtoes 0
lfemur -5.00196 -8.01704 -13.5086
ltibia 21.7245
lfoot -24.8396 15.9792
ltoes -53.7612
617
root -0.531311 18.7033 5.95185 3.38418 -2.53702 -1.54308
lowerback 1.46134 2.85251 -2.13064
upperback -2.26988 3.77029 0.84969
thorax -3.34879 1.94485 1.89534
lowerneck -15.7231 -2.5272 -1.83335
upperneck 35.9946 -3.65259 1.27485
head 15.2943 -1.60089 0.229454
rclavicle -4.39007e-014 1.98785e-015
rhumerus -42.6493 28.051 -102.037
rradius 109.712
rwrist -60.632
rhand -15.936 -69.2279
rfingers 7.12502
rthumb 10.2619 -621.042
lclavicle -4.39007e-014 1.98785e-015
lhumerus -43.291 -29.4952 100.817
lradius 109.57
lwrist 31.3259
lhand -14.6311 -27.3542
lfingers 7.12502
lthumb 11.5205 2.3092
rfemur 0 0 0
rtibia 0
rfoot 0 0
rtoes 0
lfemur -5.02155 -7.91078 -13.4671
ltibia 21.7498
lfoot -24.8031 15.9306
ltoes -53.8402
618
root -0.531383 18.7051 5.95102 3.4534 -2.58062 -1.58849
lowerback 1.3935 2.8728 -2.11193
upperback -2.29737 3.79972 0.866709
thorax -3.3404 1.95959 1.90372
lowerneck -15.6901 -2.53349 -1.81573
upperneck 35.9644 -3.6527 1.2361
head 15.2703 -1.60447 0.210573
rclavicle -7.56896e-015 5.06901e-015
rhumerus -42.1443 26.8604 -101.054
rradius 109.534
rwrist -62.5988
rhand -16.5068 -69.477
rfingers 7.12502
rthumb 9.71124 -620.767
lclavicle -7.56896e-015 5.06901e-015
lhumerus -43.3158 -29.4082 100.858
lradius 109.615
lwrist 31.3181
lhand -14.6113 -27.4556
lfingers 7.12502
lthumb 11.5397 2.20678
rfemur 0 0 0
rtibia 0
rfoot 0 0
rtoes 0
lfemur -5.09851 -7.88825 -13.4122
ltibia 21.7798
lfoot -24.8431 15.9813
ltoes -53.8821
